<?xml version="1.0" standalone="no"?>
<!DOCTYPE svg PUBLIC "-//W3C//DTD SVG 20010904//EN"
 "http://www.w3.org/TR/2001/REC-SVG-20010904/DTD/svg10.dtd">
<svg version="1.0" xmlns="http://www.w3.org/2000/svg"
 width="5950.000000pt" height="5950.000000pt" viewBox="0 0 5950.000000 5950.000000"
 preserveAspectRatio="xMidYMid meet">
<metadata>
Created by potrace 1.11, written by Peter Selinger 2001-2013
</metadata>
<g transform="translate(0.000000,5950.000000) scale(0.100000,-0.100000)"
fill="#000000" stroke="none">
<path d="M20189 59496 c-2 -2 -65 -7 -140 -10 -75 -4 -149 -9 -165 -11 -16 -1
-65 -6 -109 -9 -44 -4 -91 -9 -105 -11 -14 -2 -54 -7 -90 -11 -36 -3 -72 -7
-80 -9 -9 -2 -43 -6 -75 -10 -33 -4 -67 -9 -75 -10 -56 -10 -103 -17 -123 -20
-28 -3 -117 -20 -272 -51 -350 -69 -843 -224 -1113 -349 -29 -14 -55 -25 -58
-25 -2 0 -80 -38 -172 -84 -247 -124 -403 -217 -612 -365 -96 -68 -288 -216
-300 -231 -3 -4 -43 -40 -90 -80 -244 -212 -651 -646 -910 -970 -19 -24 -59
-73 -87 -109 -29 -36 -56 -70 -61 -76 -128 -161 -398 -541 -588 -826 -141
-213 -474 -743 -474 -754 0 -3 -15 -28 -33 -57 -19 -29 -45 -73 -59 -98 -14
-25 -48 -83 -75 -130 -47 -80 -177 -311 -231 -410 -13 -25 -37 -67 -52 -95
-64 -117 -144 -267 -253 -475 -77 -148 -360 -715 -422 -845 -26 -55 -72 -152
-102 -215 -30 -63 -66 -140 -80 -170 -14 -30 -43 -93 -65 -140 -39 -83 -64
-139 -193 -425 -154 -342 -428 -983 -535 -1251 -28 -71 -55 -138 -60 -149 -5
-11 -18 -41 -29 -67 -12 -26 -21 -50 -21 -53 0 -3 -8 -25 -19 -48 -10 -23 -42
-103 -70 -177 -29 -74 -57 -144 -62 -155 -11 -23 -129 -325 -133 -340 -2 -5
-8 -21 -13 -35 -13 -32 -80 -208 -108 -285 -41 -112 -123 -330 -134 -355 -38
-91 -298 -825 -437 -1235 -243 -712 -383 -1163 -429 -1379 -2 -11 -31 -145
-64 -296 -33 -151 -62 -286 -64 -300 -3 -14 -8 -36 -11 -50 -3 -14 -8 -36 -10
-50 -2 -14 -11 -61 -20 -105 -36 -175 -130 -703 -151 -845 -2 -14 -8 -54 -14
-90 -6 -36 -13 -82 -17 -104 -3 -21 -7 -48 -10 -59 -2 -11 -8 -55 -14 -97 -6
-42 -12 -86 -14 -97 -3 -11 -8 -44 -11 -74 -4 -30 -9 -63 -10 -74 -3 -23 -14
-99 -20 -135 -2 -14 -6 -45 -10 -70 -3 -25 -8 -61 -10 -80 -3 -19 -8 -53 -11
-75 -3 -22 -7 -53 -10 -70 -2 -16 -6 -50 -9 -75 -3 -25 -7 -61 -10 -80 -2 -19
-7 -59 -10 -88 -4 -29 -8 -63 -11 -75 -2 -12 -7 -50 -9 -83 -3 -34 -7 -71 -10
-82 -2 -12 -7 -52 -10 -89 -4 -37 -8 -75 -10 -83 -2 -8 -7 -51 -11 -95 -3 -44
-8 -87 -9 -95 -2 -8 -6 -49 -10 -90 -3 -41 -8 -86 -10 -100 -2 -14 -6 -59 -10
-100 -4 -41 -8 -86 -10 -100 -2 -14 -6 -59 -10 -100 -3 -41 -8 -92 -11 -113
-2 -21 -6 -71 -9 -110 -3 -40 -7 -92 -10 -117 -2 -25 -7 -81 -10 -125 -3 -44
-8 -100 -10 -125 -3 -25 -7 -79 -10 -120 -3 -41 -7 -102 -10 -135 -4 -55 -8
-114 -20 -295 -2 -36 -6 -105 -10 -155 -17 -281 -35 -647 -50 -1060 -27 -732
-27 -2264 0 -2875 2 -58 7 -177 10 -265 8 -242 19 -464 31 -665 3 -52 7 -122
9 -155 3 -70 13 -234 20 -320 2 -33 7 -100 10 -150 8 -113 13 -191 20 -280 3
-38 8 -95 10 -125 10 -135 16 -208 20 -245 2 -22 7 -71 10 -110 3 -38 8 -90
10 -115 2 -25 7 -76 10 -115 3 -38 8 -86 10 -105 2 -19 7 -64 10 -100 3 -36 8
-81 10 -100 2 -19 7 -64 10 -100 3 -36 8 -81 10 -100 6 -50 14 -127 20 -185 3
-27 7 -63 9 -80 2 -16 7 -61 11 -100 4 -38 8 -77 10 -85 1 -8 6 -46 10 -83 3
-37 8 -76 10 -85 1 -9 6 -47 9 -84 4 -37 9 -77 11 -90 2 -13 11 -81 19 -153 9
-71 18 -141 20 -155 3 -14 7 -47 10 -75 4 -27 8 -61 11 -75 2 -14 7 -47 10
-75 7 -59 10 -76 30 -220 18 -126 23 -164 30 -220 3 -22 10 -65 15 -95 5 -30
12 -73 15 -95 14 -96 35 -232 39 -255 3 -14 10 -60 16 -103 13 -87 15 -99 31
-190 6 -34 12 -73 14 -87 5 -32 63 -377 70 -410 3 -14 10 -52 15 -85 23 -130
30 -171 34 -190 2 -11 11 -60 20 -110 26 -142 64 -342 111 -580 24 -121 46
-231 49 -245 2 -14 21 -101 41 -195 20 -93 39 -181 41 -195 3 -14 10 -45 15
-70 6 -25 13 -56 15 -70 4 -20 65 -292 79 -350 2 -8 11 -50 20 -93 9 -44 21
-90 26 -104 5 -14 7 -28 4 -31 -2 -3 0 -11 6 -19 6 -7 9 -13 6 -13 -3 0 -1
-16 5 -36 5 -20 11 -44 13 -53 3 -19 13 -61 75 -316 95 -392 173 -696 294
-1145 19 -69 111 -403 136 -490 10 -36 28 -96 39 -135 209 -733 524 -1718 782
-2448 61 -171 120 -337 131 -367 31 -87 98 -272 113 -310 8 -19 35 -91 60
-160 26 -69 59 -159 75 -200 16 -41 50 -129 76 -195 213 -554 524 -1315 704
-1720 10 -22 69 -157 133 -300 63 -143 127 -286 141 -317 14 -32 37 -82 50
-110 89 -197 283 -610 419 -893 148 -308 686 -1373 704 -1395 5 -5 0 20 -22
130 -2 14 -7 41 -10 60 -6 36 -42 246 -50 290 -5 25 -19 112 -31 184 -3 21 -7
48 -10 59 -2 12 -6 39 -9 62 -3 22 -15 96 -26 165 -22 136 -24 150 -35 225 -3
28 -8 59 -10 70 -2 11 -7 40 -10 65 -3 25 -7 52 -9 60 -2 8 -7 39 -10 69 -4
30 -9 63 -11 75 -2 12 -6 39 -9 61 -5 40 -13 97 -21 146 -4 26 -7 49 -19 144
-4 28 -8 60 -10 71 -2 12 -7 48 -10 80 -4 33 -9 67 -11 78 -2 10 -6 44 -10 75
-3 31 -8 63 -9 71 -2 9 -6 43 -10 75 -4 33 -9 71 -11 85 -2 14 -6 50 -10 80
-3 30 -7 66 -9 79 -3 14 -7 52 -11 85 -3 34 -8 75 -10 91 -2 17 -6 50 -9 75
-3 25 -9 79 -14 120 -13 96 -17 135 -36 308 -3 26 -7 63 -10 82 -2 19 -7 62
-10 95 -3 33 -8 74 -10 90 -3 17 -12 100 -20 185 -9 85 -18 173 -20 195 -2 22
-7 65 -10 95 -3 30 -7 75 -10 100 -3 25 -7 70 -10 100 -2 30 -6 73 -9 95 -4
36 -7 70 -21 230 -11 116 -16 172 -20 210 -2 22 -7 75 -10 117 -4 43 -8 99
-11 125 -2 26 -6 77 -9 113 -3 36 -7 88 -10 115 -2 28 -7 86 -10 130 -3 44 -8
100 -10 125 -3 25 -7 79 -10 120 -11 165 -15 227 -20 275 -5 62 -19 264 -29
440 -3 50 -8 124 -11 165 -8 111 -16 247 -20 315 -7 156 -17 335 -20 385 -2
30 -7 111 -10 180 -3 69 -8 166 -10 215 -3 50 -7 149 -10 220 -3 72 -7 185
-10 251 -8 184 -19 522 -30 914 -28 1028 -24 2543 9 3575 15 454 17 500 32
815 3 63 7 162 9 220 3 58 7 141 10 185 2 44 7 132 10 195 3 63 8 144 10 180
3 36 7 110 10 165 3 55 7 127 10 160 3 33 7 101 10 150 3 50 7 117 10 150 3
33 7 96 10 140 3 44 8 107 10 140 3 33 7 94 10 135 3 41 8 98 10 125 3 28 7
82 10 120 3 39 7 93 10 120 2 28 7 86 11 130 4 44 8 94 10 110 1 17 6 68 9
115 3 47 8 96 10 110 2 14 6 59 10 100 3 41 8 91 10 110 3 19 9 87 15 150 6
63 12 133 15 155 2 22 7 65 10 95 5 59 33 314 50 470 3 25 7 64 9 86 4 38 9
81 22 174 3 19 7 60 10 90 3 30 7 66 9 80 2 14 7 50 10 80 3 30 8 66 10 80 10
75 15 110 20 160 4 30 8 66 10 80 10 73 15 109 19 145 7 55 16 125 21 155 2
14 16 111 30 215 14 105 32 233 40 285 8 52 17 118 20 145 4 28 8 57 10 65 2
8 7 35 10 60 3 25 10 70 15 100 5 30 12 75 15 100 3 25 10 68 15 95 5 28 11
66 14 85 3 19 8 51 11 70 3 19 7 49 9 65 2 17 7 41 10 55 3 14 8 41 10 60 2
19 7 46 10 60 3 14 8 43 11 65 13 94 146 840 170 955 3 14 8 39 10 55 3 17 23
120 45 230 21 110 41 214 44 230 3 17 8 40 11 53 11 49 32 147 40 192 3 14 7
36 10 50 3 14 7 34 9 45 12 56 78 365 86 400 5 22 23 103 40 180 37 164 155
670 204 870 58 241 227 889 281 1078 3 9 7 25 9 35 16 70 257 895 287 984 11
31 22 67 24 78 3 17 90 295 138 440 6 19 12 37 12 40 0 3 43 131 94 285 170
509 403 1161 536 1500 5 11 9 22 10 25 2 12 46 127 55 145 5 11 49 121 98 245
103 259 242 598 277 673 13 29 32 75 43 102 22 56 244 557 293 662 18 38 58
124 89 193 32 69 81 175 110 235 72 152 418 847 486 975 30 58 81 155 113 215
66 124 125 233 154 285 11 19 35 64 55 100 36 67 154 277 190 340 19 32 61
104 109 190 11 19 58 98 104 175 46 77 89 149 95 160 36 65 280 459 424 685
384 603 920 1362 1348 1910 67 86 339 428 358 450 12 14 100 120 196 235 597
717 1334 1498 1983 2100 65 61 134 125 154 144 20 19 94 86 166 150 71 64 136
123 145 131 55 51 312 273 475 411 237 199 646 527 855 684 58 44 110 83 115
87 6 5 80 60 165 123 85 63 160 118 165 122 14 11 129 93 253 180 94 65 101
73 82 83 -86 46 -767 300 -1085 405 -162 53 -332 108 -395 127 -110 33 -333
99 -365 108 -468 128 -612 165 -744 195 -249 57 -553 125 -576 128 -16 3 -55
10 -85 17 -30 6 -71 13 -90 16 -19 3 -38 8 -41 10 -4 2 -35 8 -70 13 -35 6
-129 21 -209 35 -138 24 -191 32 -260 41 -17 2 -43 6 -58 10 -15 3 -47 7 -72
9 -25 3 -58 7 -75 10 -28 5 -155 21 -255 32 -25 2 -58 6 -75 9 -16 2 -61 7
-100 10 -38 3 -90 8 -115 11 -25 3 -70 7 -100 9 -30 2 -93 7 -140 10 -46 4
-118 9 -160 12 -87 5 -966 13 -971 9z"/>
<path d="M28468 57275 c-2 -1 -37 -5 -78 -9 -41 -3 -90 -8 -108 -11 -101 -14
-120 -17 -152 -25 -19 -5 -51 -12 -70 -15 -96 -17 -432 -123 -538 -171 -29
-13 -55 -24 -57 -24 -27 0 -476 -226 -595 -299 -8 -5 -62 -38 -120 -72 -89
-53 -418 -271 -454 -300 -6 -5 -87 -66 -181 -135 -209 -155 -553 -434 -646
-524 -9 -8 -31 -28 -50 -44 -220 -189 -745 -701 -1004 -980 -66 -71 -131 -141
-145 -156 -14 -14 -59 -64 -100 -110 -41 -46 -82 -91 -90 -100 -100 -109 -342
-392 -514 -600 -70 -85 -135 -164 -144 -175 -20 -24 -265 -333 -332 -420 -26
-33 -111 -145 -189 -250 -79 -104 -148 -197 -154 -205 -34 -43 -331 -456 -399
-555 -30 -44 -79 -114 -108 -155 -161 -232 -577 -868 -769 -1178 -70 -112
-390 -643 -423 -702 -14 -25 -88 -153 -163 -285 -75 -132 -167 -294 -203 -360
-36 -66 -75 -138 -87 -160 -12 -22 -42 -76 -65 -120 -23 -44 -57 -107 -76
-140 -70 -126 -191 -364 -377 -735 -229 -459 -344 -699 -487 -1015 -104 -230
-121 -268 -130 -290 -5 -11 -23 -51 -40 -90 -27 -59 -64 -147 -187 -435 -8
-19 -19 -44 -23 -55 -4 -11 -17 -41 -29 -67 -12 -26 -21 -50 -21 -53 0 -3 -9
-24 -19 -48 -27 -58 -342 -855 -347 -877 0 -3 -5 -16 -11 -30 -85 -205 -390
-1100 -523 -1535 -118 -384 -261 -884 -285 -993 -2 -9 -23 -89 -45 -177 -23
-88 -44 -168 -46 -178 -2 -10 -6 -27 -9 -37 -3 -10 -8 -27 -10 -37 -2 -10 -16
-67 -30 -128 -15 -60 -28 -117 -30 -125 -2 -8 -10 -45 -19 -81 -8 -37 -17 -78
-20 -90 -2 -13 -18 -85 -35 -159 -17 -74 -34 -148 -37 -165 -3 -16 -14 -70
-24 -120 -11 -49 -21 -101 -24 -115 -2 -14 -11 -59 -19 -100 -9 -41 -18 -91
-21 -110 -3 -19 -14 -80 -25 -135 -11 -55 -22 -118 -25 -140 -9 -55 -15 -90
-27 -160 -6 -33 -13 -71 -15 -85 -2 -14 -6 -38 -9 -55 -2 -16 -7 -48 -10 -70
-3 -22 -8 -51 -10 -65 -3 -14 -8 -43 -11 -65 -3 -22 -9 -60 -14 -83 -11 -59
-1 -46 61 88 53 115 404 815 451 900 14 25 59 108 100 185 143 265 145 269
233 425 77 136 98 175 120 215 34 62 195 337 277 476 41 68 77 131 81 139 4 8
15 27 25 42 9 15 51 83 92 150 76 126 302 491 320 518 5 8 44 69 86 135 318
501 781 1179 1127 1650 32 44 66 90 75 103 17 24 317 424 362 482 24 31 221
284 285 365 52 65 175 219 193 240 9 11 55 67 102 125 47 58 97 118 111 135
15 16 91 107 170 200 131 156 466 540 514 590 11 11 52 56 92 100 39 44 84 94
100 110 15 17 91 98 168 180 245 263 984 995 1152 1143 22 19 198 179 223 202
8 8 47 42 85 75 64 55 131 115 159 140 6 6 67 58 136 115 69 58 127 107 130
110 3 3 55 46 115 95 61 49 112 92 115 95 10 11 377 298 475 370 55 41 109 83
119 92 11 10 23 18 26 18 4 0 16 8 27 18 21 17 77 58 268 194 355 254 900 602
1295 826 146 82 183 103 240 134 121 66 264 140 425 220 88 44 176 88 195 98
19 10 80 38 135 63 55 25 138 63 185 85 372 174 958 395 1435 541 167 52 540
157 587 166 9 2 65 15 125 30 59 14 119 28 133 31 14 3 34 8 45 10 11 3 31 7
45 10 13 3 56 12 95 20 38 8 117 24 175 35 58 11 114 22 125 24 11 2 63 11
115 20 52 8 104 17 115 19 11 2 43 7 70 10 28 4 75 11 105 16 30 5 78 12 105
15 28 3 66 8 85 11 19 3 58 7 85 10 28 3 60 7 73 9 12 2 64 7 115 11 50 3 94
8 97 9 3 2 55 6 115 10 61 4 121 9 135 11 202 25 1273 25 1492 -1 18 -2 78 -6
133 -10 55 -3 114 -8 130 -10 17 -3 61 -7 99 -10 38 -3 79 -7 90 -10 12 -2 52
-7 89 -10 37 -4 78 -8 89 -10 12 -3 48 -7 82 -10 33 -3 70 -8 81 -10 11 -3 36
-7 55 -9 19 -2 82 -12 138 -21 57 -9 106 -14 109 -12 9 10 -210 325 -440 632
-147 196 -610 764 -656 805 -3 3 -24 25 -45 50 -304 349 -866 908 -1160 1155
-26 21 -58 48 -70 60 -40 36 -179 151 -256 212 -8 6 -40 32 -70 56 -105 84
-419 313 -545 397 -70 47 -149 100 -176 118 -27 17 -51 32 -53 32 -3 0 -31 17
-63 38 -96 64 -351 207 -524 294 -148 75 -214 107 -374 178 -103 46 -405 159
-545 204 -136 43 -503 138 -580 150 -19 3 -44 7 -55 10 -11 2 -40 7 -65 11
-25 4 -52 9 -61 10 -9 2 -40 7 -70 10 -30 4 -65 9 -79 11 -31 5 -317 13 -322
9z"/>
<path d="M9985 55377 c-110 -101 -616 -605 -735 -733 -142 -151 -205 -220
-290 -314 -47 -51 -92 -101 -100 -110 -8 -9 -46 -52 -85 -96 -38 -43 -72 -81
-75 -84 -50 -45 -606 -718 -795 -960 -49 -63 -92 -117 -95 -120 -6 -5 -105
-136 -243 -320 -48 -63 -90 -120 -94 -125 -16 -20 -76 -102 -143 -195 -38 -52
-77 -106 -87 -120 -21 -28 -238 -337 -253 -360 -5 -8 -39 -56 -74 -107 -36
-50 -70 -102 -77 -115 -6 -13 -15 -25 -18 -28 -7 -6 -208 -309 -288 -436 -7
-10 -40 -62 -73 -114 -34 -52 -67 -104 -73 -114 -7 -11 -32 -52 -56 -90 -92
-147 -322 -530 -393 -656 -14 -25 -60 -106 -103 -180 -42 -74 -81 -144 -86
-155 -6 -11 -15 -29 -22 -40 -122 -201 -577 -1089 -725 -1415 -11 -25 -40 -88
-64 -140 -25 -52 -52 -111 -60 -130 -9 -19 -27 -60 -41 -90 -49 -109 -66 -148
-142 -325 -43 -99 -102 -241 -132 -315 -31 -74 -60 -146 -66 -160 -5 -14 -11
-29 -13 -35 -2 -5 -39 -102 -84 -215 -44 -113 -87 -223 -95 -245 -8 -22 -37
-103 -65 -180 -118 -319 -297 -861 -389 -1175 -12 -41 -26 -86 -31 -100 -26
-72 -201 -717 -215 -792 -3 -11 -7 -28 -10 -38 -3 -10 -7 -27 -9 -37 -2 -10
-12 -47 -21 -83 -9 -36 -19 -76 -21 -90 -3 -14 -7 -31 -9 -38 -3 -7 -18 -74
-35 -150 -17 -75 -40 -175 -50 -222 -10 -47 -21 -96 -24 -110 -3 -14 -25 -126
-50 -250 -24 -124 -49 -253 -55 -287 -6 -35 -13 -75 -16 -90 -3 -16 -8 -43
-11 -62 -3 -18 -8 -43 -10 -55 -14 -71 -25 -137 -30 -181 -3 -27 -7 -52 -9
-55 -2 -3 -7 -33 -10 -65 -4 -33 -9 -62 -10 -65 -2 -3 -6 -30 -10 -60 -3 -30
-8 -62 -10 -70 -2 -8 -7 -39 -10 -69 -4 -30 -8 -61 -10 -70 -1 -9 -6 -41 -10
-71 -3 -30 -8 -66 -10 -80 -5 -35 -12 -89 -25 -200 -6 -52 -13 -105 -15 -118
-2 -12 -7 -57 -10 -100 -4 -42 -9 -84 -10 -93 -2 -9 -6 -52 -10 -95 -4 -43 -8
-90 -10 -104 -3 -14 -7 -61 -10 -105 -3 -44 -8 -105 -11 -135 -8 -84 -12 -138
-20 -256 -3 -60 -8 -125 -9 -144 -3 -38 -16 -277 -20 -375 -26 -534 -21 -1327
11 -1895 3 -58 7 -134 9 -170 8 -135 29 -422 40 -535 2 -22 7 -71 10 -110 3
-38 8 -86 10 -105 2 -19 7 -64 10 -100 4 -36 8 -76 10 -90 2 -14 7 -55 10 -92
3 -37 7 -75 9 -85 2 -10 7 -47 11 -83 4 -36 9 -74 11 -85 4 -18 10 -74 19
-155 4 -34 25 -182 29 -206 2 -10 7 -41 10 -69 4 -27 8 -61 11 -75 9 -49 15
-86 21 -130 3 -25 8 -52 9 -62 2 -9 7 -38 11 -65 8 -61 12 -80 18 -101 3 -9 7
-37 10 -62 3 -25 8 -56 11 -70 7 -36 45 -241 49 -265 2 -11 8 -45 14 -75 6
-30 13 -66 16 -80 6 -36 75 -367 86 -415 10 -40 59 -257 65 -285 7 -35 66
-280 79 -330 8 -30 33 -129 56 -220 23 -91 57 -219 76 -286 19 -67 36 -130 39
-140 33 -154 327 -1078 465 -1464 29 -80 56 -156 60 -170 5 -14 18 -50 30 -80
12 -30 29 -77 39 -105 23 -65 139 -371 156 -410 7 -16 36 -86 63 -155 77 -194
162 -400 188 -458 13 -29 24 -55 24 -57 0 -2 11 -28 24 -57 14 -29 63 -141
109 -248 191 -437 597 -1277 800 -1655 24 -44 69 -129 101 -190 61 -115 102
-189 144 -265 14 -25 59 -106 100 -180 77 -139 318 -559 368 -643 16 -26 71
-118 123 -205 226 -377 539 -870 834 -1312 107 -161 172 -256 176 -260 3 -3
33 -45 66 -95 33 -49 95 -139 137 -200 43 -60 82 -117 88 -125 29 -43 383
-534 425 -591 28 -37 57 -77 65 -89 8 -12 20 -28 25 -34 6 -6 22 -27 35 -46
13 -19 27 -37 30 -40 3 -3 50 -66 105 -140 55 -74 102 -137 105 -140 3 -3 42
-52 85 -110 44 -57 114 -148 155 -201 182 -233 287 -366 306 -389 12 -14 45
-54 73 -90 29 -36 57 -72 64 -80 7 -8 50 -62 97 -120 47 -58 92 -114 101 -125
176 -212 496 -596 535 -641 29 -32 102 -117 164 -189 62 -71 124 -143 139
-160 14 -16 61 -70 105 -120 96 -110 130 -148 226 -255 41 -45 83 -92 93 -104
31 -35 141 -158 162 -181 20 -21 36 -38 215 -235 52 -57 127 -138 166 -180 39
-41 100 -106 136 -145 36 -38 85 -90 108 -115 531 -568 1539 -1576 2110 -2110
25 -23 97 -91 160 -150 63 -60 129 -121 145 -136 17 -15 84 -77 150 -139 113
-105 193 -179 294 -270 24 -22 56 -51 71 -65 14 -14 64 -59 110 -100 47 -41
94 -84 106 -95 11 -11 53 -49 94 -85 40 -36 78 -70 84 -75 6 -6 49 -44 96 -85
47 -41 87 -77 90 -80 57 -56 39 -20 -76 155 -206 311 -521 808 -578 910 -9 17
-48 82 -87 145 -108 177 -318 532 -372 630 -16 30 -38 66 -47 80 -9 14 -31 52
-50 85 -18 33 -42 76 -53 95 -67 117 -332 592 -382 685 -21 39 -64 117 -95
175 -67 121 -243 455 -405 765 -145 276 -587 1166 -723 1455 -17 36 -62 132
-101 214 -39 82 -71 150 -71 151 0 2 -32 69 -70 150 -39 81 -70 148 -70 151 0
2 -23 52 -50 110 -28 58 -50 108 -50 110 0 2 -17 41 -39 86 -33 73 -50 110
-56 128 -1 3 -16 37 -34 75 -18 39 -80 178 -138 310 -58 132 -113 258 -123
280 -10 22 -30 69 -45 105 -14 36 -32 79 -40 95 -7 17 -32 75 -55 130 -42 99
-57 134 -84 198 -45 103 -399 980 -461 1142 -14 39 -30 79 -34 90 -5 11 -14
33 -20 49 -26 65 -275 726 -344 916 -236 643 -560 1602 -752 2225 -25 83 -52
168 -59 190 -12 36 -37 119 -83 275 -9 30 -19 64 -23 75 -15 40 -178 602 -185
635 -2 8 -18 65 -35 125 -18 61 -33 115 -34 120 -1 6 -10 37 -20 70 -10 33
-25 85 -32 115 -8 30 -16 62 -19 70 -2 8 -13 49 -24 90 -11 41 -36 136 -56
210 -42 155 -105 396 -110 423 -2 10 -7 27 -10 37 -3 10 -7 27 -10 37 -2 10
-17 74 -35 143 -18 69 -33 132 -35 140 -2 8 -24 98 -49 200 -24 102 -65 275
-90 385 -42 183 -51 220 -72 310 -4 17 -8 35 -9 40 -2 6 -15 66 -30 135 -15
69 -34 154 -42 190 -8 36 -17 76 -19 90 -3 14 -14 68 -25 120 -12 52 -23 104
-25 115 -2 11 -35 176 -73 368 -39 191 -73 360 -76 375 -6 36 -85 462 -90 487
-4 23 -22 123 -30 173 -13 83 -16 98 -20 112 -2 8 -6 33 -10 55 -3 22 -19 119
-35 215 -16 96 -36 220 -45 275 -8 55 -17 111 -19 125 -3 14 -7 41 -10 60 -3
19 -14 94 -25 165 -11 72 -23 153 -26 180 -3 28 -8 57 -10 65 -2 8 -7 42 -11
75 -3 33 -8 62 -9 65 -2 3 -6 37 -10 75 -4 39 -9 72 -10 75 -2 3 -6 30 -10 60
-3 30 -8 66 -10 80 -5 34 -24 178 -40 313 -3 23 -7 58 -10 77 -3 19 -7 53 -9
75 -3 22 -8 58 -11 80 -3 22 -7 61 -10 86 -2 26 -7 66 -10 90 -7 56 -13 109
-20 184 -3 33 -8 71 -10 85 -2 14 -6 54 -10 90 -4 36 -8 76 -10 90 -2 14 -7
61 -10 105 -4 44 -8 87 -10 95 -2 8 -6 53 -10 100 -3 47 -8 92 -10 100 -2 8
-7 58 -10 110 -3 52 -8 106 -10 120 -2 14 -6 59 -10 100 -8 104 -15 187 -20
240 -2 25 -7 88 -10 140 -4 52 -8 106 -10 120 -2 14 -7 73 -10 131 -3 59 -7
124 -9 145 -2 22 -7 93 -10 159 -4 66 -9 140 -11 165 -3 25 -7 106 -10 180 -3
74 -8 167 -10 205 -2 39 -7 138 -10 220 -3 83 -8 191 -10 240 -27 565 -27
2273 0 2800 2 44 7 148 10 230 6 157 11 250 20 400 18 316 23 399 30 490 2 33
6 98 10 145 3 47 8 110 10 140 6 73 15 173 20 236 3 27 7 79 10 115 3 35 7 89
10 119 2 30 7 87 10 125 3 39 8 85 10 103 3 18 7 60 10 95 3 34 7 78 10 97 2
19 7 64 10 100 3 36 8 81 10 100 8 56 13 110 20 180 3 36 8 76 10 90 2 14 6
50 10 80 7 66 12 109 20 170 6 43 10 76 20 158 6 53 35 272 40 302 2 14 6 48
10 75 3 28 15 111 26 185 10 74 22 153 25 175 3 22 7 47 9 55 2 8 6 35 9 60 3
25 8 54 10 65 2 11 7 40 10 65 3 25 8 56 10 70 7 36 17 102 20 125 3 21 16 97
22 130 2 10 6 35 9 55 3 20 7 45 9 55 2 11 7 40 11 65 4 25 9 54 11 65 2 11
13 72 24 135 19 109 23 131 35 190 2 14 7 41 10 60 3 19 22 118 41 220 20 102
38 196 41 210 2 14 22 113 45 220 22 107 42 204 44 215 2 11 7 34 11 50 3 17
7 37 8 45 2 13 107 488 121 543 2 9 6 25 8 35 38 162 100 420 141 582 24 95
57 229 60 243 2 10 7 27 10 37 3 10 8 27 10 37 8 39 120 451 191 703 155 546
337 1135 514 1655 37 110 75 223 84 250 10 28 21 59 26 70 5 11 29 79 53 150
25 72 62 175 82 230 20 55 49 136 65 180 34 97 292 769 313 816 24 56 48 121
45 125 -2 1 -48 -38 -103 -89z"/>
<path d="M33717 51173 c-1 0 -105 -4 -232 -7 -126 -3 -268 -8 -315 -11 -47 -2
-128 -7 -181 -10 -53 -2 -120 -7 -150 -9 -30 -3 -90 -8 -134 -12 -44 -3 -91
-7 -105 -9 -14 -1 -61 -5 -105 -9 -103 -9 -183 -17 -215 -21 -14 -2 -50 -6
-80 -10 -30 -3 -86 -10 -125 -15 -38 -5 -90 -12 -115 -15 -45 -5 -102 -13
-150 -20 -14 -2 -47 -7 -75 -10 -27 -4 -57 -8 -65 -10 -8 -2 -35 -7 -60 -10
-25 -3 -52 -8 -60 -10 -8 -2 -35 -7 -60 -10 -25 -3 -108 -18 -185 -31 -77 -14
-151 -27 -165 -29 -25 -4 -447 -91 -485 -100 -11 -3 -33 -8 -50 -11 -73 -13
-448 -106 -700 -174 -251 -67 -577 -167 -890 -272 -204 -68 -639 -226 -700
-254 -16 -7 -70 -29 -120 -48 -151 -57 -490 -203 -805 -347 -99 -45 -701 -346
-810 -404 -47 -25 -112 -61 -145 -79 -33 -18 -85 -47 -115 -64 -72 -40 -301
-169 -320 -182 -8 -5 -40 -23 -70 -41 -208 -120 -728 -457 -1050 -680 -120
-82 -438 -315 -550 -401 -93 -71 -86 -66 -140 -108 -59 -45 -279 -220 -305
-242 -11 -9 -65 -53 -120 -98 -55 -45 -124 -103 -154 -128 -80 -69 -152 -131
-186 -160 -24 -20 -108 -94 -211 -187 -415 -371 -905 -854 -1285 -1266 -170
-185 -422 -469 -564 -637 -16 -20 -44 -52 -61 -71 -79 -92 -323 -393 -443
-546 -73 -93 -139 -179 -148 -189 -47 -57 -409 -545 -476 -641 -15 -22 -66
-94 -112 -160 -91 -128 -554 -820 -620 -926 -22 -35 -66 -107 -99 -159 -32
-52 -122 -198 -198 -325 -76 -126 -142 -237 -148 -245 -52 -86 -345 -602 -447
-790 -194 -356 -521 -994 -652 -1272 -21 -46 -67 -141 -101 -213 -34 -71 -85
-179 -112 -240 -28 -60 -65 -141 -83 -180 -18 -38 -67 -149 -110 -245 -42 -96
-82 -188 -90 -205 -36 -80 -90 -207 -159 -375 -42 -102 -81 -194 -86 -205 -29
-61 -242 -617 -342 -890 -184 -504 -459 -1359 -573 -1780 -15 -55 -38 -138
-52 -185 -13 -47 -26 -92 -28 -100 -2 -8 -17 -67 -34 -130 -41 -158 -130 -508
-135 -534 -3 -12 -25 -106 -50 -211 -24 -104 -47 -201 -50 -215 -3 -14 -19
-88 -36 -165 -16 -77 -32 -149 -35 -160 -22 -103 -106 -522 -119 -595 -2 -14
-7 -36 -10 -50 -3 -14 -8 -38 -11 -55 -8 -51 -35 -199 -39 -221 -2 -12 -7 -39
-11 -60 -3 -22 -8 -50 -10 -64 -26 -155 -85 -515 -89 -550 -3 -25 -8 -54 -10
-65 -2 -11 -7 -42 -10 -70 -4 -27 -16 -108 -26 -180 -11 -71 -21 -148 -24
-170 -16 -124 -25 -196 -31 -235 -2 -14 -6 -50 -10 -80 -4 -30 -8 -66 -10 -80
-2 -14 -6 -54 -10 -90 -3 -36 -8 -72 -10 -80 -2 -8 -7 -49 -10 -90 -3 -41 -8
-86 -10 -100 -2 -14 -6 -52 -10 -85 -3 -33 -8 -78 -10 -100 -13 -127 -17 -165
-20 -210 -4 -52 -12 -138 -20 -215 -2 -25 -7 -76 -10 -115 -3 -38 -7 -90 -10
-115 -2 -25 -7 -88 -10 -140 -3 -52 -8 -115 -10 -140 -3 -25 -7 -86 -10 -135
-3 -50 -7 -120 -9 -155 -3 -36 -8 -119 -11 -186 -3 -67 -8 -151 -10 -187 -4
-61 -13 -287 -20 -477 -28 -765 -19 -1931 20 -2690 3 -52 7 -147 10 -210 3
-63 7 -144 10 -180 2 -36 7 -108 10 -160 3 -52 8 -122 10 -155 3 -33 7 -98 10
-145 3 -47 8 -113 10 -147 3 -35 7 -93 10 -130 3 -38 7 -94 10 -125 3 -32 7
-85 10 -118 10 -115 16 -185 20 -220 2 -19 7 -72 10 -117 3 -46 8 -91 9 -100
2 -10 7 -52 10 -94 4 -42 9 -87 11 -100 2 -13 6 -60 10 -103 4 -43 8 -86 10
-95 1 -9 6 -47 10 -86 3 -38 8 -83 10 -100 5 -35 13 -104 20 -172 6 -55 15
-125 21 -168 3 -28 20 -163 30 -250 2 -22 6 -51 9 -65 2 -14 7 -49 10 -79 4
-30 8 -61 10 -70 1 -9 6 -41 10 -71 3 -30 8 -66 10 -80 3 -14 7 -45 10 -70 9
-72 17 -134 20 -152 2 -9 11 -68 20 -130 9 -62 18 -124 20 -138 3 -14 7 -41 9
-60 10 -63 67 -424 72 -455 3 -16 7 -41 9 -55 7 -48 66 -395 75 -445 6 -27 26
-135 45 -240 57 -321 87 -477 151 -795 25 -124 48 -236 50 -250 3 -14 10 -45
15 -70 6 -25 13 -56 15 -70 2 -14 11 -56 20 -95 9 -38 17 -78 19 -88 2 -10 6
-26 9 -35 3 -9 8 -33 11 -52 5 -29 56 -263 70 -320 2 -8 11 -46 19 -85 9 -38
29 -128 46 -200 17 -71 33 -141 36 -155 3 -14 14 -61 26 -105 25 -98 23 -91
32 -140 4 -22 12 -53 17 -70 7 -24 88 -349 104 -415 11 -51 123 -479 157 -600
22 -80 43 -161 48 -180 4 -19 29 -109 54 -200 26 -91 49 -172 50 -180 5 -19
113 -395 161 -560 43 -148 124 -415 168 -555 17 -55 32 -104 33 -110 9 -41
207 -655 344 -1065 147 -442 256 -753 458 -1315 168 -465 635 -1668 728 -1873
13 -29 24 -55 24 -57 0 -2 18 -46 39 -97 22 -51 65 -154 96 -228 31 -74 62
-148 70 -165 7 -16 27 -64 45 -105 17 -41 38 -88 45 -105 7 -16 61 -138 118
-270 58 -132 116 -265 130 -295 14 -30 35 -77 47 -105 21 -47 92 -202 155
-340 15 -33 44 -96 65 -140 21 -44 51 -109 68 -145 17 -36 56 -119 88 -185 31
-66 58 -122 59 -125 6 -23 506 -1028 549 -1104 13 -22 52 -95 86 -161 62 -118
109 -207 158 -295 14 -25 40 -74 59 -109 19 -35 55 -97 79 -138 24 -41 44 -76
44 -78 0 -2 16 -30 36 -62 39 -63 38 -51 -6 72 -44 121 -163 483 -210 635 -23
74 -45 146 -50 160 -20 53 -240 842 -255 910 -2 8 -26 107 -54 220 -63 260
-101 418 -107 450 -3 14 -11 52 -19 85 -18 73 -83 377 -109 510 -3 11 -16 78
-30 148 -14 71 -28 141 -31 155 -5 26 -9 51 -20 102 -2 14 -7 39 -10 55 -3 17
-7 41 -9 55 -3 14 -12 68 -21 120 -9 52 -18 97 -20 100 -2 3 -7 33 -10 65 -4
33 -9 63 -11 66 -2 4 -6 24 -9 45 -3 22 -7 48 -9 59 -2 11 -7 40 -11 65 -4 25
-9 54 -12 65 -2 11 -6 36 -7 56 -2 20 -6 50 -10 65 -3 16 -8 49 -11 74 -3 25
-8 52 -10 60 -2 8 -6 35 -9 60 -3 25 -8 54 -10 65 -2 11 -7 43 -10 70 -4 28
-10 66 -13 85 -3 19 -7 49 -9 65 -1 17 -5 46 -8 65 -3 19 -8 55 -11 80 -3 25
-8 56 -10 70 -2 14 -9 69 -15 124 -7 54 -13 106 -15 115 -1 9 -6 45 -10 81 -4
36 -9 76 -10 90 -2 14 -7 54 -10 90 -4 36 -9 74 -11 84 -2 10 -6 49 -9 85 -3
36 -7 80 -10 96 -2 17 -6 62 -10 100 -3 39 -8 86 -10 105 -5 38 -13 130 -19
200 -11 126 -18 209 -21 250 -2 25 -7 81 -10 125 -3 44 -8 103 -10 130 -3 28
-7 93 -10 145 -3 52 -8 124 -10 159 -7 91 -15 238 -30 549 -5 110 -14 398 -21
642 -5 183 -4 1084 1 1280 3 141 16 504 20 595 2 33 6 128 9 210 4 83 9 175
11 205 2 30 7 100 10 155 12 206 15 248 30 430 3 33 7 94 10 135 7 86 9 108
30 340 2 25 7 74 10 110 3 36 8 81 11 100 2 20 6 60 9 90 4 51 10 103 20 190
2 19 7 60 10 90 3 30 8 71 10 90 5 37 9 75 21 175 3 33 8 69 10 80 2 11 6 43
10 70 4 42 19 154 40 305 3 19 12 82 20 140 8 58 17 121 19 140 3 19 7 49 10
65 2 17 7 48 10 70 3 22 12 78 20 125 8 47 26 155 40 240 24 147 29 176 39
235 22 120 27 148 30 167 5 29 33 184 41 223 16 81 47 243 52 270 6 35 116
560 137 655 8 36 25 108 36 160 12 52 24 104 26 115 2 11 24 103 49 205 25
102 48 196 51 210 5 25 93 366 144 560 252 960 659 2206 1016 3113 19 48 50
129 70 180 20 50 42 106 49 122 7 17 51 125 98 240 140 345 424 998 549 1261
23 49 42 91 43 94 2 7 42 93 130 275 43 88 81 169 86 180 12 28 195 382 251
485 25 47 65 121 88 165 23 44 59 109 80 145 20 36 51 90 67 120 33 61 45 82
146 255 194 333 613 1000 684 1090 4 6 21 30 38 55 126 189 474 670 646 891
40 53 85 111 99 129 40 53 279 349 344 425 32 39 65 79 75 90 28 35 184 218
217 255 136 153 282 318 299 335 11 11 67 72 125 135 267 289 675 698 975 975
66 61 129 119 140 130 12 11 62 56 111 99 49 44 94 85 99 90 14 16 205 180
390 337 145 123 571 467 655 529 19 14 48 36 64 50 39 32 471 353 547 406 31
21 114 80 185 130 253 178 721 487 970 641 76 47 486 295 514 311 19 11 76 43
125 72 126 73 385 219 480 270 44 23 112 60 150 81 180 97 325 171 630 323
182 90 362 179 400 196 39 18 113 53 165 77 52 25 181 83 285 129 105 47 208
93 230 103 76 35 421 179 605 254 102 41 196 80 210 85 22 9 57 22 70 27 3 1
16 6 30 12 54 23 545 205 715 266 309 111 1122 378 1225 402 8 2 62 18 120 35
394 118 862 244 1285 346 221 53 273 65 615 140 284 62 281 61 330 70 19 4 42
8 50 10 39 8 369 73 395 78 17 2 57 10 90 16 33 6 75 13 94 16 18 3 43 8 55
10 11 3 39 7 61 10 22 3 48 7 58 10 10 3 32 7 50 10 18 2 43 6 57 9 14 3 43 7
65 10 22 4 65 10 95 15 52 9 84 14 148 24 30 5 226 34 287 42 22 3 83 11 135
19 52 7 120 16 150 20 30 3 66 8 80 10 14 2 50 7 80 10 30 3 66 8 80 10 14 2
54 6 90 10 36 4 76 8 90 10 46 6 125 15 185 20 33 3 76 8 95 10 19 2 69 7 110
11 41 3 93 8 115 10 22 2 76 6 120 9 44 3 103 7 130 10 45 4 92 7 300 20 439
28 1287 28 1560 0 61 -6 206 -24 258 -31 39 -5 184 -37 225 -50 26 -7 28 5 12
74 -6 23 -13 59 -16 80 -3 20 -8 40 -9 43 -2 3 -9 32 -14 65 -6 32 -17 91 -26
129 -8 39 -17 81 -20 95 -2 14 -19 88 -36 165 -17 77 -37 167 -44 200 -18 80
-101 426 -132 545 -13 52 -25 102 -27 110 -2 8 -12 44 -21 80 -9 36 -19 73
-21 84 -2 10 -10 42 -18 70 -8 28 -22 76 -30 106 -8 30 -29 105 -46 165 -17
61 -33 117 -35 126 -2 9 -18 63 -35 119 -17 56 -33 110 -35 119 -26 115 -310
949 -374 1096 -5 11 -19 47 -31 80 -30 80 -33 87 -140 329 -179 408 -353 723
-539 976 -30 41 -60 80 -65 86 -6 7 -27 31 -46 55 -37 47 -175 188 -227 231
-162 137 -438 253 -823 346 -153 38 -386 86 -469 98 -20 3 -47 7 -61 10 -66
12 -224 36 -335 49 -27 3 -81 10 -120 15 -38 5 -101 12 -140 15 -38 4 -81 8
-95 10 -14 2 -63 6 -110 10 -47 4 -102 9 -124 11 -21 2 -82 6 -135 9 -53 4
-123 8 -156 10 -334 21 -1295 28 -1660 11 -309 -14 -493 -24 -575 -31 -30 -2
-89 -7 -130 -10 -177 -13 -318 -25 -455 -39 -27 -3 -75 -8 -105 -11 -30 -3
-77 -8 -105 -11 -27 -4 -61 -8 -75 -9 -88 -9 -167 -18 -181 -20 -9 -2 -40 -6
-70 -9 -50 -6 -99 -12 -159 -21 -14 -2 -63 -9 -110 -15 -47 -6 -97 -13 -112
-16 -71 -11 -88 -14 -163 -24 -44 -7 -91 -13 -105 -15 -14 -2 -38 -6 -55 -9
-16 -3 -48 -8 -70 -11 -22 -4 -47 -8 -55 -10 -8 -2 -33 -7 -55 -10 -23 -3 -50
-7 -60 -9 -64 -12 -195 -36 -225 -41 -19 -3 -48 -8 -65 -12 -16 -3 -39 -7 -50
-9 -11 -1 -67 -12 -125 -24 -58 -11 -116 -23 -130 -26 -14 -2 -50 -10 -80 -16
-30 -6 -59 -12 -65 -14 -5 -1 -44 -9 -85 -18 -41 -9 -84 -18 -95 -21 -22 -4
-141 -30 -225 -50 -88 -20 -306 -73 -415 -100 -55 -14 -108 -27 -117 -30 -63
-15 -478 -129 -510 -141 -21 -7 -39 -13 -41 -13 -1 1 -22 -5 -47 -12 -25 -7
-49 -13 -55 -15 -46 -11 -400 -122 -615 -194 -361 -120 -650 -224 -905 -325
-90 -36 -167 -65 -171 -65 -3 0 -20 -6 -37 -14 -82 -37 -131 -56 -142 -56 -8
0 -15 -3 -17 -7 -1 -5 -41 -23 -88 -42 -115 -46 -384 -163 -499 -217 -51 -24
-95 -44 -97 -44 -13 0 -596 -287 -779 -383 -253 -133 -483 -260 -645 -354
-180 -105 -338 -200 -495 -298 -27 -17 -75 -46 -105 -65 -269 -167 -829 -558
-1144 -798 -233 -178 -717 -571 -777 -631 -9 -9 -31 -29 -50 -46 -116 -101
-197 -173 -215 -190 -12 -11 -70 -65 -130 -119 -116 -106 -722 -711 -788 -786
-22 -25 -69 -77 -105 -116 -36 -39 -79 -86 -96 -105 -88 -100 -115 -129 -115
-124 0 7 121 249 162 324 37 68 197 352 219 389 9 15 25 43 36 62 90 159 386
612 570 875 166 235 557 754 592 785 3 3 24 28 46 55 22 28 44 55 50 61 5 6
26 30 45 54 19 24 55 67 79 95 24 27 53 61 65 75 31 37 229 262 246 280 8 9
60 65 115 126 54 60 239 249 410 419 282 282 409 403 580 554 33 30 76 68 95
85 29 27 204 175 349 298 127 106 321 258 330 258 5 0 11 4 13 9 3 8 229 180
333 254 22 16 74 53 115 83 41 29 188 129 325 220 138 92 262 175 277 185 15
11 30 19 34 19 4 0 22 11 40 25 18 14 35 25 37 25 3 0 47 26 98 59 52 32 114
69 139 83 25 14 83 48 130 75 47 28 110 64 140 80 30 17 73 41 95 53 160 92
642 334 875 440 256 117 646 279 845 351 44 16 89 33 100 38 58 27 477 167
716 240 165 50 485 141 554 156 6 2 82 21 170 43 242 60 320 78 565 126 196
39 246 48 320 62 8 1 35 6 60 10 25 4 50 8 55 10 6 1 28 5 50 8 22 3 81 13
130 21 170 27 230 36 265 40 99 12 134 17 149 20 15 3 84 10 180 20 24 2 60 7
80 9 20 3 65 8 101 11 36 4 76 8 90 10 14 2 61 6 105 10 153 11 200 15 250 20
28 2 97 7 155 10 58 4 132 8 165 10 414 24 1176 24 1670 0 112 -6 313 -18 335
-20 14 -2 75 -6 135 -10 61 -4 117 -8 125 -10 8 -2 56 -7 105 -10 50 -4 101
-8 115 -10 14 -2 61 -7 105 -11 44 -3 88 -8 98 -10 10 -2 48 -6 85 -9 37 -3
74 -8 82 -10 8 -2 47 -7 85 -11 39 -3 77 -8 85 -9 8 -1 40 -6 70 -10 30 -3 66
-8 80 -10 14 -2 48 -6 75 -10 28 -3 60 -7 72 -9 11 -3 43 -7 70 -11 26 -4 62
-9 78 -12 17 -2 45 -6 64 -9 19 -2 46 -6 60 -9 14 -2 42 -7 61 -10 19 -3 47
-8 63 -11 15 -3 27 -1 27 4 0 11 -121 220 -223 385 -81 130 -271 412 -370 549
-40 55 -79 109 -87 122 -69 102 -358 462 -519 645 -217 248 -541 568 -741 732
-36 30 -67 56 -70 60 -14 16 -300 229 -308 229 -6 0 -12 4 -14 8 -5 13 -201
138 -319 205 -274 152 -487 239 -764 312 -71 19 -141 36 -155 39 -14 2 -70 13
-125 25 -112 23 -207 40 -263 47 -20 2 -44 6 -52 9 -8 2 -42 7 -75 11 -33 3
-62 8 -65 9 -3 2 -34 6 -70 10 -36 3 -76 8 -90 10 -42 6 -154 18 -287 30 -29
3 -77 7 -105 10 -29 3 -98 7 -153 10 -55 3 -129 8 -165 10 -107 8 -798 23
-803 18z"/>
<path d="M40967 39424 c-1 -1 -94 -5 -207 -8 -113 -4 -232 -8 -265 -10 -158
-9 -282 -18 -305 -21 -14 -2 -56 -7 -95 -10 -38 -3 -86 -8 -105 -10 -19 -2
-60 -7 -90 -10 -30 -4 -66 -8 -80 -10 -14 -2 -50 -7 -80 -10 -68 -8 -97 -12
-280 -40 -19 -3 -53 -8 -75 -11 -34 -5 -394 -73 -475 -89 -487 -100 -1129
-287 -1629 -474 -176 -66 -466 -184 -569 -232 -35 -16 -65 -29 -67 -29 -13 0
-529 -252 -620 -303 -22 -12 -71 -40 -110 -61 -132 -73 -235 -138 -231 -144 2
-4 6 -29 10 -57 6 -48 8 -66 22 -145 3 -19 8 -51 10 -70 4 -32 20 -147 29
-210 2 -14 7 -45 10 -70 3 -25 8 -56 10 -70 2 -14 7 -50 10 -80 4 -30 9 -62
10 -70 3 -15 5 -32 26 -195 5 -44 12 -96 14 -115 3 -19 7 -57 10 -85 3 -27 7
-61 9 -75 6 -33 16 -113 21 -170 3 -25 7 -61 9 -80 3 -19 8 -64 12 -100 3 -36
8 -73 9 -82 2 -9 7 -49 10 -89 4 -40 8 -80 10 -88 1 -9 6 -54 10 -101 4 -47 8
-92 10 -100 2 -8 6 -53 10 -100 4 -47 9 -93 10 -102 2 -9 7 -58 10 -108 4 -51
8 -101 10 -111 2 -11 7 -57 10 -102 3 -45 7 -100 9 -122 2 -22 7 -80 10 -130
4 -49 9 -106 11 -125 2 -19 7 -84 10 -145 4 -60 8 -123 10 -140 2 -16 7 -86
11 -155 3 -69 8 -150 9 -180 11 -187 18 -343 30 -620 25 -591 25 -1745 0
-2260 -2 -41 -6 -133 -10 -205 -11 -238 -14 -299 -19 -375 -3 -41 -8 -111 -11
-155 -12 -174 -16 -222 -20 -275 -3 -30 -8 -81 -10 -112 -14 -171 -19 -216
-29 -313 -3 -22 -8 -73 -11 -114 -4 -41 -8 -82 -10 -90 -1 -9 -6 -50 -10 -91
-4 -41 -9 -82 -10 -90 -1 -8 -6 -49 -11 -90 -4 -41 -8 -77 -9 -80 -1 -3 -5
-36 -9 -75 -5 -38 -10 -77 -11 -85 -1 -8 -6 -40 -10 -70 -3 -30 -8 -66 -10
-80 -2 -14 -7 -45 -10 -70 -3 -25 -8 -56 -10 -70 -10 -65 -24 -159 -30 -200
-3 -25 -10 -70 -15 -100 -5 -30 -12 -71 -15 -90 -4 -19 -15 -84 -25 -145 -10
-60 -21 -126 -25 -145 -3 -19 -8 -42 -10 -50 -2 -8 -7 -33 -10 -55 -3 -23 -7
-50 -9 -60 -82 -413 -157 -767 -170 -806 -3 -8 -7 -27 -10 -44 -3 -16 -15 -68
-26 -115 -12 -47 -23 -92 -25 -100 -65 -295 -305 -1111 -441 -1495 -31 -88
-62 -178 -69 -200 -14 -40 -24 -70 -109 -295 -97 -257 -255 -633 -411 -975
-43 -94 -289 -590 -343 -690 -44 -82 -68 -127 -147 -270 -310 -560 -683 -1124
-1137 -1716 -98 -128 -471 -578 -497 -599 -3 -3 -21 -23 -40 -45 -178 -211
-660 -700 -930 -945 -125 -113 -122 -111 -196 -175 -37 -33 -73 -65 -79 -70
-114 -105 -491 -409 -741 -596 -516 -387 -1111 -770 -1670 -1075 -38 -21 -101
-55 -140 -76 -102 -56 -622 -315 -745 -372 -168 -77 -516 -229 -630 -276 -58
-23 -118 -49 -135 -56 -68 -31 -447 -174 -650 -246 -461 -162 -1212 -393
-1478 -453 -9 -2 -45 -11 -80 -20 -34 -9 -69 -18 -77 -20 -8 -2 -89 -21 -180
-43 -161 -40 -409 -96 -466 -107 -35 -6 -55 -10 -114 -24 -42 -9 -58 -12 -135
-26 -16 -3 -37 -8 -45 -10 -8 -2 -31 -7 -50 -10 -19 -3 -66 -12 -105 -20 -38
-7 -86 -16 -105 -19 -19 -3 -57 -10 -85 -16 -27 -5 -63 -12 -80 -14 -16 -2
-84 -13 -150 -25 -66 -11 -138 -23 -160 -26 -22 -2 -51 -7 -65 -9 -14 -3 -74
-12 -135 -21 -60 -9 -121 -18 -135 -20 -14 -2 -50 -7 -80 -10 -30 -4 -63 -9
-72 -10 -9 -2 -43 -6 -75 -10 -32 -3 -69 -7 -83 -10 -14 -2 -47 -7 -75 -10
-27 -3 -66 -7 -85 -10 -19 -2 -62 -7 -95 -10 -33 -4 -73 -8 -90 -10 -16 -3
-59 -7 -95 -10 -36 -3 -78 -7 -95 -9 -16 -3 -66 -7 -110 -11 -44 -4 -96 -8
-115 -10 -19 -2 -80 -6 -135 -10 -55 -3 -116 -8 -135 -10 -19 -3 -84 -7 -145
-10 -60 -4 -135 -8 -165 -10 -237 -15 -466 -20 -920 -20 -289 1 -544 3 -568 6
-69 10 -48 -6 26 -19 37 -6 189 -36 337 -66 149 -30 284 -56 300 -59 26 -4
169 -31 230 -43 11 -2 61 -11 110 -20 121 -20 137 -23 160 -28 11 -2 40 -7 65
-11 25 -4 54 -9 65 -11 10 -2 35 -6 55 -9 34 -5 53 -8 110 -20 14 -2 45 -7 70
-10 25 -3 83 -12 130 -20 47 -8 103 -17 125 -20 22 -2 51 -7 65 -9 33 -6 154
-24 205 -31 22 -3 54 -7 70 -10 63 -10 111 -17 145 -21 42 -4 108 -13 141 -19
13 -2 50 -6 83 -10 32 -4 68 -8 80 -10 32 -5 114 -15 251 -31 28 -3 61 -7 75
-9 14 -2 52 -6 85 -9 33 -3 76 -7 95 -10 55 -7 151 -18 200 -22 58 -4 167 -14
205 -19 17 -2 59 -6 95 -9 165 -14 217 -18 250 -21 19 -2 76 -7 125 -10 50 -3
108 -7 130 -10 22 -2 92 -7 155 -10 63 -4 140 -8 170 -10 651 -43 1698 -52
2380 -20 174 8 304 15 375 20 39 3 104 7 145 10 97 7 212 15 275 21 28 2 79 6
115 9 36 3 85 7 110 10 107 11 148 15 195 20 68 5 155 15 185 20 14 3 50 7 80
10 30 3 71 7 90 10 19 2 55 7 80 10 25 3 63 8 85 12 22 4 43 6 47 5 4 -1 29 2
55 7 26 5 73 12 103 16 30 3 68 8 83 11 16 3 38 7 50 8 12 2 42 6 67 10 25 4
57 9 73 12 51 8 82 13 257 43 196 34 224 39 260 46 14 3 36 8 50 10 26 5 216
42 260 51 14 3 86 19 160 35 74 17 165 37 202 45 36 7 191 46 345 85 153 38
285 72 293 74 97 24 458 132 710 212 403 127 1042 367 1395 523 387 171 856
397 1085 522 30 17 78 43 105 58 28 15 80 44 116 63 37 20 111 62 165 93 55
31 113 65 129 74 68 39 247 147 348 212 59 37 112 68 117 68 6 0 10 5 10 10 0
6 4 10 9 10 32 0 727 485 1031 719 200 154 446 351 515 412 17 15 68 59 115
99 47 40 99 84 115 98 59 51 222 197 335 301 147 135 705 693 835 835 55 60
109 118 120 130 17 18 56 62 197 221 28 32 279 326 307 360 242 295 532 671
696 902 237 332 504 727 666 985 190 302 479 791 578 980 43 81 55 102 62 108
4 3 14 21 22 40 9 19 37 73 62 120 151 276 418 809 545 1085 139 303 242 533
315 705 31 74 66 154 76 177 10 23 19 44 19 47 0 3 11 29 23 58 13 29 30 69
37 88 7 19 21 53 30 75 10 22 30 72 45 110 15 39 33 84 40 100 17 39 80 205
148 385 30 80 58 154 62 165 4 11 9 25 11 30 1 6 17 48 34 95 151 403 345 991
506 1530 52 173 101 335 109 360 11 36 145 518 160 580 2 8 45 177 95 375 51
198 94 371 96 384 3 13 20 87 39 165 32 134 101 433 111 486 7 35 35 162 40
185 3 11 7 31 10 45 2 14 16 77 29 140 14 63 33 160 44 215 11 55 22 111 25
125 24 120 58 299 60 315 2 11 6 34 9 50 4 17 9 46 13 65 3 19 7 40 8 45 2 6
7 33 11 60 5 28 10 52 10 55 1 3 5 28 10 55 9 61 12 76 24 140 6 28 12 66 15
85 3 19 16 100 30 180 13 80 27 163 30 185 4 23 9 52 11 65 3 14 7 43 10 65 3
22 7 49 9 60 2 11 9 56 16 100 17 121 20 138 25 165 2 14 7 45 10 70 7 53 14
95 20 130 2 14 7 44 10 68 8 67 16 125 20 152 5 35 21 153 29 225 6 42 13 100
21 150 2 17 7 57 10 90 3 33 8 71 10 85 3 14 7 48 10 75 3 28 8 64 10 80 2 17
7 62 10 100 4 39 8 77 10 85 2 8 7 47 11 85 3 39 8 78 9 87 2 9 7 52 10 95 4
43 9 87 11 98 2 11 6 51 9 90 3 38 7 86 10 105 5 43 14 136 20 210 2 30 7 75
9 100 3 25 8 79 11 120 3 41 8 95 10 120 2 25 7 77 10 115 3 39 7 97 10 130 6
75 13 175 20 285 3 47 7 112 10 145 9 111 18 276 31 535 3 69 7 154 9 190 5
99 16 379 21 525 11 317 11 1275 0 1284 -6 4 -22 11 -36 13 -14 3 -61 15 -106
27 -45 12 -90 23 -100 25 -10 2 -57 13 -104 24 -126 31 -314 71 -357 78 -21 3
-45 7 -53 9 -17 5 -35 8 -230 40 -190 31 -346 52 -505 69 -177 19 -157 17
-350 31 -49 4 -108 8 -130 10 -67 7 -673 23 -678 19z"/>
<path d="M25267 13393 c-2 -4 -7 -24 -11 -43 -11 -60 -14 -78 -70 -345 -31
-143 -57 -271 -60 -285 -2 -14 -14 -68 -25 -120 -11 -52 -22 -106 -25 -120 -3
-14 -14 -70 -26 -125 -12 -55 -23 -109 -25 -120 -2 -11 -13 -65 -25 -120 -12
-55 -24 -109 -26 -120 -2 -11 -6 -31 -9 -45 -14 -69 -19 -95 -20 -100 -2 -6
-16 -78 -20 -100 -2 -8 -8 -35 -14 -60 -5 -25 -12 -58 -15 -75 -9 -50 -15 -76
-35 -170 -25 -112 -58 -270 -65 -310 -9 -45 -13 -69 -41 -194 -13 -64 -27
-127 -29 -141 -3 -14 -7 -34 -9 -45 -8 -31 -74 -350 -117 -560 -22 -104 -47
-224 -55 -265 -43 -202 -115 -548 -119 -570 -6 -31 -97 -470 -125 -600 -11
-52 -22 -106 -25 -120 -2 -14 -14 -68 -25 -120 -11 -52 -22 -106 -25 -120 -2
-14 -11 -57 -20 -95 -8 -39 -17 -82 -19 -95 -3 -14 -23 -113 -46 -220 -52
-245 -84 -398 -161 -770 -34 -162 -64 -304 -66 -315 -3 -11 -7 -31 -10 -45 -4
-21 -52 -255 -59 -285 -1 -9 -10 -49 -21 -105 -1 -8 -9 -47 -18 -85 -8 -39
-17 -82 -20 -95 -2 -14 -11 -57 -20 -95 -8 -39 -17 -82 -19 -95 -3 -14 -14
-68 -25 -120 -12 -52 -23 -106 -26 -120 -15 -76 -27 -135 -45 -220 -11 -52
-22 -106 -25 -120 -6 -32 -24 -119 -30 -145 -4 -17 -40 -183 -52 -240 -15 -74
-25 -125 -30 -151 -3 -16 -10 -49 -15 -74 -6 -25 -13 -56 -15 -70 -3 -14 -16
-79 -30 -145 -15 -66 -28 -129 -29 -140 -2 -11 -13 -65 -25 -120 -12 -55 -24
-110 -26 -123 l-4 -22 610 0 c335 0 610 3 611 8 0 4 2 14 4 22 4 17 53 254 59
285 3 11 13 63 24 115 11 52 22 106 25 120 6 33 39 192 77 368 16 79 32 155
35 170 2 15 16 81 30 147 22 104 58 276 71 340 5 24 1 7 63 300 27 132 52 254
55 270 3 17 17 80 30 142 14 61 34 158 45 215 12 56 28 135 36 173 9 39 18 84
21 100 2 17 18 93 34 170 17 77 33 151 35 165 3 14 10 48 16 75 6 28 12 59 14
70 3 16 37 184 50 240 2 10 13 67 19 95 2 8 7 35 11 58 4 24 13 45 19 48 6 2
619 5 1361 7 743 2 1375 6 1405 10 30 3 93 8 140 12 47 3 96 7 110 10 14 2 57
6 95 10 39 3 79 8 90 10 11 2 45 7 76 10 31 3 65 7 75 9 11 2 41 7 67 10 27 4
58 9 70 12 12 2 39 6 62 9 107 15 418 80 575 119 288 73 616 211 832 352 178
116 317 233 501 419 281 286 502 647 665 1087 83 223 149 462 167 602 3 27 8
52 9 55 2 3 6 34 10 69 3 34 9 90 13 125 14 130 8 448 -13 602 -79 601 -412
1181 -859 1500 -89 64 -268 160 -355 190 -124 43 -277 86 -360 101 -25 4 -47
8 -50 9 -3 0 -27 5 -55 10 -27 5 -52 9 -55 10 -5 1 -102 14 -160 20 -14 2 -59
6 -100 10 -41 4 -93 10 -115 13 -65 8 -4293 14 -4298 5z m3878 -997 c28 -3 82
-8 120 -11 39 -3 86 -8 105 -10 19 -3 55 -7 80 -10 261 -32 447 -100 615 -225
128 -95 238 -230 307 -376 41 -89 83 -216 93 -287 4 -23 8 -44 10 -47 16 -25
24 -351 12 -480 -9 -100 -37 -260 -57 -320 -4 -14 -18 -59 -30 -100 -48 -160
-147 -362 -264 -535 -33 -49 -65 -96 -70 -103 -6 -7 -15 -18 -21 -25 -210
-258 -422 -429 -699 -566 -99 -49 -288 -121 -356 -136 -8 -2 -53 -12 -100 -23
-47 -11 -112 -25 -145 -31 -33 -6 -69 -13 -80 -15 -11 -2 -45 -7 -75 -11 -30
-4 -63 -9 -72 -10 -9 -2 -48 -7 -85 -10 -37 -4 -76 -9 -86 -11 -10 -1 -61 -6
-115 -9 -53 -4 -117 -9 -142 -12 -25 -3 -602 -7 -1283 -10 -1199 -5 -1239 -4
-1233 14 3 10 8 33 11 52 3 19 7 37 9 40 2 3 7 23 10 43 3 21 11 59 16 84 6
26 13 59 15 73 2 14 12 60 20 101 9 41 19 86 21 100 3 14 14 67 25 119 12 51
22 101 24 110 3 14 48 234 61 296 8 39 24 120 28 140 3 11 9 40 15 65 5 25 13
61 16 80 3 19 8 43 11 53 3 11 7 29 9 40 1 12 12 65 23 117 11 52 23 106 25
120 8 39 36 177 57 270 10 47 22 105 25 130 4 24 8 47 10 51 2 3 11 41 20 85
9 43 27 131 40 194 13 63 26 126 29 140 3 14 14 69 25 124 12 54 23 108 25
120 2 11 21 100 41 196 20 96 39 186 41 200 3 14 7 32 9 40 2 8 7 29 10 45 2
17 7 41 10 55 3 14 8 40 11 58 l7 34 1411 -5 c776 -3 1434 -7 1461 -11z"/>
<path d="M33347 13368 c-3 -18 -26 -132 -52 -253 -25 -121 -47 -229 -49 -240
-16 -78 -49 -236 -56 -265 -5 -19 -12 -51 -15 -70 -3 -19 -10 -51 -15 -70 -5
-19 -11 -48 -14 -65 -2 -16 -14 -74 -25 -129 -12 -54 -23 -108 -25 -120 -3
-11 -14 -65 -25 -120 -12 -54 -23 -108 -25 -120 -3 -11 -25 -119 -50 -239 -25
-120 -48 -228 -50 -240 -2 -12 -27 -130 -55 -262 -28 -132 -53 -251 -56 -264
-2 -14 -9 -47 -15 -75 -6 -28 -12 -60 -14 -71 -15 -76 -78 -377 -86 -410 -6
-22 -12 -51 -14 -65 -3 -14 -25 -124 -50 -245 -26 -121 -48 -229 -50 -240 -2
-11 -12 -56 -21 -100 -19 -90 -22 -106 -32 -155 -4 -19 -8 -37 -8 -40 -1 -3
-4 -18 -8 -35 -10 -44 -98 -466 -103 -495 -3 -14 -9 -44 -15 -68 -5 -23 -12
-59 -15 -80 -3 -20 -8 -40 -10 -43 -2 -3 -6 -21 -9 -40 -3 -19 -12 -63 -20
-99 -8 -36 -17 -76 -19 -90 -2 -14 -9 -45 -15 -70 -5 -25 -13 -61 -16 -80 -4
-19 -8 -39 -9 -45 -2 -9 -11 -53 -22 -105 -1 -8 -16 -78 -33 -155 -16 -77 -32
-151 -34 -165 -5 -25 -46 -223 -52 -250 -5 -23 -126 -603 -131 -625 -16 -86
-156 -759 -164 -790 -5 -22 -19 -87 -31 -145 -11 -58 -36 -178 -54 -267 -19
-90 -37 -173 -39 -185 -2 -13 -9 -43 -15 -68 -5 -25 -12 -56 -15 -70 -2 -14
-21 -104 -41 -200 -20 -96 -39 -186 -41 -200 -3 -14 -16 -78 -30 -144 -14 -65
-28 -130 -30 -144 -3 -14 -12 -58 -20 -97 -9 -38 -17 -79 -20 -90 -15 -75 -25
-123 -29 -143 -2 -13 -6 -31 -9 -40 -3 -9 -7 -33 -10 -52 -3 -19 -12 -59 -19
-87 l-14 -53 613 0 c338 0 614 4 614 8 0 5 9 51 20 103 11 52 22 103 24 114 2
11 13 65 25 120 11 55 22 111 25 125 2 14 11 57 20 95 8 39 17 82 20 95 2 14
34 165 70 335 36 171 67 324 70 340 3 17 28 138 56 270 28 132 67 314 85 405
19 91 36 176 39 190 3 14 24 113 46 220 23 107 43 206 46 220 3 14 14 66 24
115 11 50 21 99 23 110 15 85 18 89 124 180 57 50 112 97 121 105 9 8 51 44
92 80 41 36 77 67 80 70 3 3 39 35 80 70 41 36 77 67 80 70 3 3 46 41 95 84
194 169 219 192 235 206 9 8 47 42 85 75 39 33 88 76 110 96 22 20 83 73 135
119 154 134 223 194 240 210 9 8 34 30 55 49 22 19 67 57 100 86 33 29 112 98
175 153 87 77 117 98 127 90 7 -6 13 -15 13 -20 0 -6 24 -51 54 -101 29 -51
66 -114 81 -142 16 -27 102 -180 193 -340 91 -159 176 -310 190 -335 35 -63
121 -212 132 -230 6 -8 13 -21 17 -29 3 -8 46 -84 95 -168 48 -85 88 -157 88
-160 0 -3 8 -17 18 -31 11 -15 34 -54 51 -87 30 -54 79 -141 191 -335 39 -68
66 -114 108 -190 14 -25 96 -169 182 -320 86 -151 168 -295 182 -320 14 -25
48 -85 77 -134 28 -49 51 -90 51 -91 0 -1 23 -42 52 -91 28 -49 70 -123 93
-164 23 -41 56 -99 74 -128 17 -29 31 -54 31 -56 0 -2 37 -68 83 -147 46 -79
86 -151 90 -159 4 -8 15 -28 25 -45 10 -16 34 -57 52 -90 18 -33 43 -76 55
-95 12 -19 25 -42 29 -50 4 -8 12 -24 19 -35 7 -11 25 -42 40 -70 15 -27 42
-75 59 -106 18 -31 69 -120 113 -198 l80 -141 683 0 c376 0 681 3 679 8 -27
45 -125 216 -142 247 -13 22 -56 96 -96 165 -39 69 -82 143 -94 165 -20 37
-179 314 -313 545 -30 52 -64 111 -75 130 -74 132 -157 276 -194 337 -23 40
-43 75 -43 78 0 2 -18 34 -40 70 -22 36 -40 68 -40 71 0 3 -8 18 -18 32 -11
15 -33 52 -49 82 -44 81 -183 321 -201 350 -9 14 -17 27 -17 30 0 3 -16 32
-36 65 -19 33 -71 122 -115 198 -43 76 -87 152 -98 170 -10 18 -32 57 -48 87
-17 30 -34 60 -38 65 -4 6 -19 30 -32 55 -14 25 -72 126 -130 225 -57 99 -107
187 -111 195 -4 8 -15 29 -25 45 -10 17 -30 50 -44 75 -14 25 -66 115 -115
200 -49 85 -101 175 -115 200 -48 86 -261 455 -285 492 -12 21 -23 40 -23 42
0 3 -40 74 -88 158 -176 304 -325 564 -353 613 -15 28 -46 81 -68 120 -23 38
-41 75 -41 80 0 6 23 31 52 56 29 24 70 60 92 80 23 20 84 74 136 119 52 46
127 111 165 145 39 34 95 83 125 110 30 26 71 61 90 78 19 17 53 47 75 66 23
20 74 65 115 101 41 36 117 103 170 150 53 47 112 98 131 115 70 61 365 320
394 346 30 26 169 148 294 258 36 31 72 63 81 71 9 8 45 40 80 70 56 48 94 81
169 150 9 8 64 56 121 105 58 50 110 95 115 101 6 5 44 39 85 75 41 35 80 69
85 75 6 5 44 39 85 75 41 35 77 66 80 69 3 3 77 68 165 145 88 77 162 142 165
145 3 3 77 68 165 144 88 77 165 144 170 150 6 6 39 36 75 66 36 30 67 57 70
61 6 6 163 145 204 180 16 13 34 29 40 34 18 17 258 228 289 255 16 14 48 42
71 62 22 21 44 38 49 38 4 0 7 5 7 10 0 7 -292 10 -855 10 l-855 0 -57 -52
c-32 -28 -60 -54 -63 -57 -3 -3 -39 -35 -80 -71 -41 -35 -77 -67 -80 -70 -3
-3 -61 -55 -130 -115 -68 -61 -131 -117 -140 -125 -9 -8 -52 -46 -95 -85 -44
-38 -104 -92 -135 -119 -75 -68 -91 -82 -200 -177 -52 -46 -97 -86 -100 -89
-3 -3 -45 -41 -95 -85 -49 -44 -92 -82 -95 -85 -3 -3 -61 -54 -130 -115 -69
-60 -143 -126 -165 -146 -22 -20 -103 -92 -180 -160 -77 -67 -156 -137 -175
-155 -37 -33 -526 -467 -719 -638 -63 -56 -122 -108 -131 -116 -8 -8 -49 -44
-90 -80 -41 -36 -84 -74 -96 -85 -11 -11 -36 -33 -55 -50 -179 -157 -297 -262
-310 -275 -8 -8 -44 -40 -79 -70 -35 -30 -75 -66 -89 -79 -14 -12 -57 -51 -96
-85 -38 -33 -76 -68 -85 -76 -9 -8 -34 -30 -55 -49 -22 -19 -74 -64 -115 -101
-41 -37 -138 -123 -215 -191 -77 -68 -145 -128 -151 -134 -20 -18 -156 -139
-349 -310 -267 -236 -316 -279 -348 -309 -33 -31 -40 -32 -33 -8 3 9 24 105
46 212 34 168 64 311 145 700 35 168 66 316 90 428 13 64 27 128 29 142 7 37
39 188 82 385 2 11 11 54 19 95 8 41 21 105 29 141 8 36 17 79 19 95 3 16 10
49 15 74 6 25 13 56 16 70 2 14 16 81 31 150 14 69 27 134 29 145 3 11 11 52
20 90 8 39 17 82 19 95 3 14 8 36 11 50 3 14 8 36 10 50 2 14 9 45 15 70 10
47 17 81 26 128 3 15 12 56 20 92 8 36 17 81 20 100 3 19 10 51 15 70 5 19 12
51 15 70 3 19 8 42 10 50 2 8 6 26 9 40 3 20 37 184 82 394 2 11 13 65 25 120
25 124 26 125 33 156 3 14 8 36 10 50 2 14 7 42 11 63 l7 37 -610 0 -609 0 -6
-32z"/>
<path d="M41396 13388 c-5 -14 -32 -145 -40 -188 -2 -14 -9 -45 -15 -70 -5
-25 -12 -56 -14 -70 -3 -14 -8 -36 -11 -50 -3 -14 -8 -36 -10 -50 -3 -14 -11
-57 -20 -95 -8 -39 -17 -82 -19 -95 -3 -14 -28 -133 -56 -265 -28 -132 -52
-251 -55 -265 -2 -14 -9 -45 -15 -70 -5 -25 -13 -60 -16 -79 -3 -19 -19 -96
-36 -170 -16 -75 -32 -149 -35 -166 -3 -16 -14 -70 -24 -120 -11 -49 -22 -101
-24 -115 -3 -14 -8 -36 -11 -50 -3 -14 -10 -47 -15 -75 -6 -27 -12 -60 -15
-72 -12 -54 -16 -72 -30 -143 -8 -41 -18 -86 -21 -100 -3 -14 -7 -34 -9 -45
-2 -11 -10 -53 -19 -92 -9 -40 -18 -87 -21 -105 -3 -18 -8 -41 -11 -50 -3 -9
-7 -25 -9 -35 -2 -10 -20 -97 -40 -193 -20 -96 -38 -186 -41 -200 -2 -14 -11
-56 -20 -95 -8 -38 -16 -79 -19 -90 -2 -11 -18 -87 -35 -170 -18 -82 -34 -159
-36 -170 -11 -54 -28 -139 -29 -145 -2 -6 -16 -77 -21 -100 -1 -8 -12 -58 -23
-110 -11 -52 -22 -106 -25 -120 -2 -14 -14 -68 -25 -120 -11 -52 -22 -106 -25
-120 -3 -14 -28 -135 -56 -270 -28 -135 -53 -254 -56 -264 -2 -11 -13 -65 -25
-120 -11 -56 -22 -109 -24 -119 -2 -10 -6 -26 -9 -35 -3 -9 -7 -33 -10 -52 -3
-20 -19 -99 -36 -175 -17 -77 -33 -153 -36 -170 -3 -16 -14 -70 -24 -120 -11
-49 -22 -101 -24 -115 -3 -14 -16 -77 -29 -140 -25 -114 -61 -291 -71 -340 -3
-14 -21 -101 -41 -195 -20 -93 -39 -181 -41 -195 -3 -14 -25 -121 -49 -238
-25 -117 -47 -223 -49 -235 -7 -35 -115 -554 -132 -632 -8 -38 -16 -79 -18
-90 -3 -15 -74 -356 -122 -580 -2 -11 -13 -65 -24 -120 -11 -55 -22 -109 -25
-120 -4 -19 -91 -432 -101 -483 l-4 -22 610 0 610 0 5 22 c9 39 142 687 161
788 3 14 18 86 34 160 16 74 31 146 34 160 2 14 19 93 36 175 18 83 34 159 36
170 3 17 37 185 48 240 3 11 25 117 50 235 25 118 47 226 50 240 2 14 9 45 15
70 5 25 12 59 15 75 3 17 8 44 11 60 3 17 10 46 15 65 5 19 12 51 15 70 3 19
15 76 26 125 11 50 22 106 25 125 3 19 9 51 14 70 5 19 19 82 30 140 12 58 31
148 42 200 10 52 21 109 24 125 3 17 7 37 10 45 3 8 8 26 11 40 10 55 34 176
37 185 1 6 6 32 11 58 4 27 13 50 19 53 6 2 621 5 1366 7 745 2 1375 7 1400
10 25 3 88 8 141 11 53 4 104 8 115 10 10 2 51 7 89 11 39 3 85 8 103 11 58 7
106 14 137 19 17 3 48 7 70 10 48 7 152 23 180 29 11 2 61 11 110 20 50 9 142
28 206 42 63 13 124 26 135 28 114 24 374 109 524 173 346 148 589 318 886
623 281 287 488 623 660 1072 53 138 128 392 147 498 3 14 8 36 11 50 4 14 8
39 10 55 2 17 6 46 10 65 37 215 41 541 10 791 -20 166 -113 519 -145 553 -5
6 -9 16 -9 23 0 21 -93 211 -152 310 -161 273 -371 500 -598 648 -109 70 -159
96 -325 166 -45 18 -230 72 -285 83 -14 2 -61 12 -105 20 -99 19 -127 24 -190
31 -27 3 -63 8 -80 10 -16 2 -66 7 -110 10 -44 4 -91 9 -105 13 -14 3 -987 7
-2163 9 -1745 3 -2138 2 -2141 -9z m3869 -991 c17 -3 72 -8 123 -12 51 -3 101
-8 110 -10 9 -1 44 -6 77 -9 33 -4 67 -9 75 -11 8 -2 31 -6 50 -9 304 -47 565
-209 727 -450 134 -199 193 -424 197 -746 5 -399 -111 -781 -344 -1134 -161
-243 -371 -454 -598 -601 -81 -52 -302 -168 -302 -159 0 4 -6 2 -12 -4 -31
-25 -337 -115 -468 -137 -19 -3 -42 -8 -50 -10 -8 -2 -37 -7 -65 -10 -27 -4
-57 -8 -65 -10 -31 -9 -214 -28 -365 -40 -55 -4 -116 -9 -135 -12 -19 -3 -595
-7 -1278 -10 -1206 -5 -1244 -4 -1239 14 6 18 13 51 68 323 17 80 32 154 35
165 2 11 7 36 10 55 3 19 10 49 14 65 5 17 11 44 14 60 2 17 28 140 56 275 55
264 56 267 154 745 36 176 73 349 81 385 8 36 17 76 19 90 9 46 35 174 71 345
20 94 45 213 55 265 21 105 48 234 85 410 27 125 33 158 34 178 1 11 245 13
1419 9 779 -3 1431 -7 1447 -10z"/>
<path d="M49467 13393 c-2 -4 -7 -24 -11 -43 -3 -19 -8 -46 -11 -60 -6 -31
-69 -334 -95 -455 -10 -49 -31 -145 -45 -212 -14 -68 -36 -176 -50 -240 -13
-65 -26 -129 -29 -143 -2 -14 -25 -122 -50 -240 -25 -118 -47 -226 -50 -240
-2 -14 -14 -68 -25 -120 -11 -52 -22 -106 -25 -120 -3 -14 -36 -176 -75 -360
-38 -184 -72 -346 -75 -360 -2 -14 -9 -45 -15 -70 -11 -49 -18 -87 -27 -140
-3 -19 -7 -37 -9 -40 -2 -3 -24 -108 -50 -233 -25 -125 -48 -236 -50 -245 -2
-9 -16 -73 -30 -142 -14 -69 -28 -134 -30 -144 -3 -11 -14 -65 -26 -120 -11
-56 -23 -110 -25 -121 -4 -21 -10 -51 -20 -100 -3 -16 -19 -91 -35 -165 -16
-74 -32 -148 -35 -165 -3 -16 -14 -70 -24 -120 -11 -49 -22 -101 -24 -115 -3
-14 -8 -36 -11 -50 -6 -29 -23 -112 -30 -152 -3 -16 -12 -56 -20 -90 -8 -35
-16 -76 -19 -93 -3 -16 -8 -41 -12 -55 -3 -14 -7 -34 -9 -45 -2 -11 -11 -54
-20 -95 -9 -41 -18 -90 -21 -109 -3 -19 -10 -46 -16 -60 -5 -14 -9 -27 -8 -29
2 -4 -12 -76 -46 -237 -18 -88 -35 -171 -38 -185 -2 -14 -14 -70 -26 -125 -12
-55 -24 -111 -26 -125 -3 -14 -10 -45 -15 -70 -6 -25 -13 -55 -15 -67 -2 -13
-6 -33 -8 -45 -2 -13 -22 -108 -45 -213 -22 -104 -67 -323 -101 -485 -34 -162
-63 -304 -66 -315 -2 -11 -13 -65 -24 -120 -11 -55 -23 -111 -26 -125 -3 -14
-7 -36 -10 -50 -3 -14 -10 -45 -15 -70 -6 -25 -13 -56 -15 -70 -3 -14 -11 -56
-20 -95 -8 -38 -16 -79 -18 -90 -2 -11 -7 -31 -10 -45 -3 -14 -8 -36 -10 -50
-5 -26 -42 -208 -76 -365 -34 -159 -69 -329 -74 -355 -2 -14 -9 -45 -15 -70
-5 -25 -12 -58 -15 -75 -3 -16 -19 -95 -37 -175 -17 -80 -33 -155 -35 -168
l-4 -22 610 0 c400 0 610 3 610 10 0 15 0 17 11 52 5 18 12 47 15 63 3 17 11
59 19 95 8 36 17 76 19 90 3 14 10 50 16 80 6 30 14 66 16 80 3 14 19 88 35
165 16 77 32 154 35 170 3 17 14 73 26 125 11 52 22 106 25 120 2 14 17 86 33
160 16 74 31 146 34 160 6 31 120 583 186 900 27 129 51 246 54 260 2 14 9 45
15 70 5 25 13 60 16 79 3 19 7 37 9 40 2 3 7 23 10 43 3 21 15 79 26 130 10
51 21 104 24 118 2 14 9 45 15 70 5 25 12 56 15 70 2 14 10 50 16 80 7 30 16
73 20 95 24 129 73 361 79 367 3 4 625 9 1381 11 756 3 1393 7 1415 10 22 3
72 8 110 11 39 3 90 8 115 11 25 3 71 7 102 10 32 2 68 7 80 9 13 3 50 8 82
11 32 3 62 7 65 9 3 2 35 7 70 10 36 4 67 8 70 10 3 2 26 7 51 10 25 3 55 8
66 10 12 2 38 7 58 10 19 3 55 10 78 15 24 6 59 13 78 16 19 3 95 19 168 36
484 109 852 275 1172 528 216 172 466 434 587 617 7 11 33 49 58 87 25 37 45
70 45 72 0 3 11 22 23 43 42 67 118 214 172 337 155 352 256 732 282 1065 47
601 -85 1138 -390 1590 -197 292 -435 506 -712 640 -92 44 -313 122 -381 133
-16 3 -58 12 -94 20 -36 9 -83 18 -105 21 -22 3 -49 7 -60 10 -11 2 -45 7 -75
11 -30 3 -66 8 -80 10 -14 2 -63 7 -110 11 -47 4 -101 9 -120 12 -60 8 -4288
13 -4293 5z m3873 -997 c25 -3 77 -8 115 -10 67 -5 273 -30 325 -41 14 -3 35
-7 47 -9 315 -60 595 -271 738 -556 60 -119 100 -269 122 -450 13 -110 6 -399
-12 -490 -2 -14 -7 -36 -10 -50 -2 -14 -7 -37 -10 -52 -3 -16 -7 -40 -10 -55
-35 -177 -153 -448 -282 -647 -312 -483 -747 -781 -1318 -904 -77 -17 -156
-33 -175 -36 -19 -2 -57 -8 -85 -12 -27 -3 -59 -8 -70 -10 -10 -2 -49 -6 -85
-10 -36 -3 -72 -8 -81 -9 -9 -2 -65 -6 -125 -10 -60 -4 -125 -9 -144 -12 -19
-3 -592 -7 -1273 -10 -1199 -5 -1239 -4 -1234 14 7 23 25 110 31 143 2 14 14
68 25 120 11 52 22 106 25 120 2 14 9 45 15 70 5 25 13 60 16 79 3 19 19 96
35 171 16 75 32 151 35 168 3 18 12 60 20 94 8 35 17 79 20 98 3 19 10 51 15
70 5 19 11 48 14 64 5 27 17 89 32 156 13 65 35 170 44 215 6 28 12 59 14 70
2 11 27 130 55 265 28 135 53 255 56 268 2 13 6 31 9 40 3 9 8 33 11 52 3 19
10 53 15 75 5 22 12 56 15 75 3 19 15 73 25 120 10 47 21 96 24 110 2 14 10
48 15 75 6 28 15 73 20 100 5 28 14 70 20 95 5 25 12 56 15 70 2 14 22 107 42
208 l38 184 1411 -5 c775 -3 1430 -8 1455 -11z"/>
<path d="M27478 3695 c-3 -2 -61 -10 -153 -20 -121 -13 -338 -78 -470 -141
-297 -140 -511 -385 -619 -708 -86 -257 -95 -547 -25 -791 125 -437 437 -727
927 -861 96 -26 102 -28 192 -44 182 -33 586 -35 725 -5 11 3 31 7 45 9 190
34 405 105 590 196 85 42 244 135 263 155 13 12 15 79 15 475 l0 460 -643 0
-642 0 0 -150 0 -150 443 0 444 0 1 -32 c0 -18 0 -122 1 -231 0 -230 15 -201
-137 -276 -142 -70 -332 -133 -465 -155 -166 -28 -415 -28 -554 -1 -560 110
-831 424 -834 969 -1 190 30 329 109 492 100 205 267 353 489 433 160 58 282
76 500 75 149 0 227 -8 310 -29 288 -74 436 -193 537 -430 23 -53 35 -70 49
-69 22 1 336 72 341 77 2 2 -5 28 -16 58 -75 218 -193 376 -363 486 -158 102
-381 175 -623 202 -68 8 -429 13 -437 6z"/>
<path d="M33508 3695 c-2 -1 -34 -5 -72 -9 -146 -14 -354 -71 -486 -134 -248
-118 -463 -320 -573 -537 -42 -85 -90 -205 -82 -205 3 0 1 -9 -5 -19 -50 -94
-71 -477 -36 -651 101 -495 448 -848 969 -984 163 -43 240 -51 482 -50 165 0
220 4 314 23 322 63 597 200 775 386 127 133 248 348 292 520 31 117 42 234
39 390 -3 179 -5 193 -36 319 -129 512 -559 863 -1154 941 -85 11 -417 19
-427 10z m418 -319 c352 -70 600 -267 719 -571 19 -47 34 -88 34 -90 0 -3 4
-27 10 -53 35 -166 34 -384 -4 -551 -57 -250 -198 -432 -445 -579 -56 -33
-179 -78 -260 -96 -41 -9 -86 -19 -100 -22 -42 -9 -302 -12 -360 -4 -144 21
-221 42 -328 91 -278 127 -472 361 -518 624 -3 17 -10 50 -15 75 -9 48 -5 354
5 405 4 17 11 55 17 85 23 113 85 258 147 340 135 179 421 329 679 356 32 4
59 8 61 9 11 9 291 -6 358 -19z"/>
<path d="M37365 3685 c-49 -7 -112 -18 -140 -25 -27 -6 -57 -13 -65 -15 -103
-22 -284 -107 -365 -173 -276 -222 -320 -593 -97 -826 91 -94 231 -175 397
-229 163 -52 181 -57 575 -138 364 -75 480 -107 593 -166 143 -75 213 -190
196 -320 -32 -248 -334 -398 -779 -387 -80 2 -158 5 -175 8 -396 62 -604 216
-671 495 l-17 73 -66 -6 c-60 -5 -184 -15 -271 -21 -30 -2 -35 -6 -38 -29 -6
-52 29 -190 70 -276 136 -284 404 -454 823 -525 164 -27 552 -28 703 -2 411
72 697 277 788 562 27 84 30 224 7 312 -70 268 -325 448 -779 548 -10 2 -50
11 -89 20 -38 8 -104 22 -145 30 -41 8 -86 17 -100 20 -14 3 -38 7 -55 10
-212 36 -465 105 -556 151 -104 52 -162 140 -162 244 0 150 109 268 310 334
184 61 586 55 778 -12 169 -58 294 -193 327 -355 l12 -58 136 7 c119 6 195 10
238 13 20 1 7 96 -24 191 -59 175 -179 310 -364 408 -104 55 -281 113 -390
126 -25 3 -56 8 -70 12 -49 12 -444 12 -535 -1z"/>
<path d="M24350 3568 c-24 -51 -67 -145 -95 -208 -51 -111 -101 -221 -150
-325 -25 -55 -79 -172 -115 -250 -12 -27 -75 -165 -140 -305 -65 -140 -128
-277 -140 -305 -12 -27 -45 -97 -71 -154 -27 -57 -49 -104 -49 -106 0 -2 -22
-49 -49 -106 -26 -57 -80 -174 -119 -259 -38 -85 -95 -208 -126 -274 -31 -65
-56 -122 -56 -127 0 -5 95 -9 210 -9 l210 0 24 53 c13 28 38 86 56 127 17 41
38 89 45 105 26 58 197 450 202 463 4 10 138 12 639 10 l635 -3 43 -95 c24
-52 57 -124 73 -160 17 -36 53 -114 81 -175 28 -60 73 -158 101 -218 l50 -107
226 0 c125 0 225 4 225 9 0 5 -33 76 -74 157 -40 82 -127 257 -191 389 -223
455 -363 741 -460 940 -195 398 -466 951 -483 985 l-18 35 -220 3 -221 2 -43
-92z m320 -348 c52 -130 120 -286 280 -640 101 -224 143 -315 161 -354 11 -22
19 -43 19 -48 0 -4 -229 -8 -510 -8 -280 0 -510 2 -510 5 0 4 16 39 77 175 14
30 63 138 108 240 46 102 103 230 128 285 55 124 127 321 158 434 13 46 25 78
27 70 3 -8 31 -79 62 -159z"/>
<path d="M29430 2401 l0 -1261 203 0 202 0 0 558 0 557 335 0 c319 -1 339 -2
408 -23 207 -64 308 -162 708 -685 87 -115 168 -221 179 -237 11 -16 45 -60
75 -99 l55 -71 253 0 c242 0 253 1 240 18 -7 10 -137 180 -288 377 -364 476
-486 603 -674 699 -49 25 -96 46 -105 47 -19 1 85 25 146 34 211 29 461 160
563 294 211 279 145 679 -146 887 -34 24 -84 54 -110 66 -41 18 -208 69 -224
68 -10 -1 -96 12 -120 18 -14 3 -402 7 -862 9 l-838 4 0 -1260z m1573 966 c15
-4 37 -9 50 -11 175 -30 322 -136 364 -263 61 -179 -27 -366 -211 -452 -150
-70 -249 -79 -871 -77 l-500 1 0 408 0 409 570 -5 c313 -2 582 -7 598 -10z"/>
<path d="M39269 3653 c-1 -4 -2 -572 -3 -1261 l-1 -1253 690 4 c380 2 705 7
723 10 17 4 44 9 60 11 80 12 166 27 172 31 3 2 17 6 31 9 48 9 200 67 256 98
188 102 358 289 448 492 61 139 90 243 114 408 10 67 8 402 -3 453 -3 17 -9
46 -13 65 -10 53 -10 54 -28 116 -73 259 -211 459 -415 603 -176 125 -356 183
-645 211 -108 10 -1385 13 -1386 3z m1361 -307 c145 -26 205 -42 276 -75 96
-46 105 -52 216 -162 72 -73 94 -103 132 -181 95 -196 126 -491 81 -773 -31
-200 -135 -405 -262 -519 -86 -77 -230 -141 -373 -166 -30 -5 -71 -12 -90 -15
-19 -4 -239 -9 -487 -12 -378 -4 -453 -3 -453 8 -1 8 -1 428 0 934 0 506 0
933 0 949 l0 28 463 -5 c254 -3 478 -8 497 -11z"/>
<path d="M42190 2400 l0 -1260 194 0 193 0 1 973 c0 534 1 978 1 986 1 7 40
-36 88 -95 48 -60 92 -114 98 -120 5 -6 21 -26 35 -44 29 -38 152 -192 160
-200 3 -3 21 -25 40 -50 19 -25 37 -47 40 -50 3 -3 29 -36 59 -74 29 -37 60
-77 69 -88 25 -31 83 -101 121 -148 19 -23 44 -54 55 -69 18 -24 438 -547 485
-603 32 -39 48 -59 190 -237 l145 -181 208 0 208 0 0 1260 0 1260 -194 0 -193
0 0 -980 c-1 -540 -2 -983 -4 -985 -2 -2 -65 74 -139 167 -74 94 -140 176
-145 182 -8 8 -476 591 -592 736 -6 8 -35 44 -65 80 -29 36 -103 127 -163 203
-61 76 -118 148 -128 160 -11 12 -94 115 -185 230 l-166 207 -208 0 -208 0 0
-1260z"/>
<path d="M47209 3648 c0 -18 0 -2468 0 -2491 1 -17 35 -18 689 -16 622 1 736
4 867 24 218 32 409 113 518 219 145 140 218 317 212 509 -8 242 -159 436
-421 541 -50 20 -99 36 -107 36 -33 0 -25 17 16 35 173 75 309 227 352 395 52
197 -42 431 -231 577 -85 66 -243 131 -374 153 -36 6 -76 14 -90 17 -14 4
-341 8 -727 10 -577 4 -703 2 -704 -9z m1336 -301 c11 -3 42 -8 68 -11 63 -9
153 -42 198 -75 50 -35 106 -114 124 -175 24 -78 18 -191 -13 -257 -27 -57
-98 -133 -135 -145 -12 -4 -24 -9 -27 -13 -6 -8 -95 -37 -135 -45 -16 -3 -43
-8 -60 -12 -16 -3 -238 -8 -491 -11 l-462 -5 0 382 0 382 457 -5 c251 -3 465
-7 476 -10z m60 -1061 c17 -3 59 -11 95 -18 154 -27 283 -117 343 -237 29 -60
32 -74 32 -161 0 -85 -3 -102 -31 -160 -51 -107 -130 -176 -249 -218 -127 -45
-185 -49 -711 -51 l-472 -2 0 432 1 431 481 -5 c264 -3 495 -8 511 -11z"/>
<path d="M49939 3643 c-1 -22 -1 -2449 0 -2480 l1 -23 200 0 200 0 0 595 0
595 785 0 785 0 1 -32 c0 -18 0 -286 1 -595 l0 -563 202 0 201 0 0 1258 0
1257 -202 3 -202 2 0 -497 c0 -274 0 -506 0 -515 -1 -17 -45 -18 -786 -18
l-785 0 0 515 0 515 -200 0 c-184 0 -200 -1 -201 -17z"/>
<path d="M52855 2403 l0 -1258 660 0 c749 0 802 3 1013 60 227 61 365 142 515
299 151 160 260 398 300 656 14 89 17 411 4 480 -2 14 -7 45 -11 70 -29 176
-115 376 -219 510 -72 93 -92 113 -189 189 -157 123 -342 198 -563 227 -22 3
-51 8 -65 11 -14 3 -344 8 -735 10 l-710 5 0 -1259z m1351 944 c12 -3 44 -8
72 -12 190 -24 347 -114 480 -274 99 -118 153 -259 178 -461 14 -107 5 -424
-12 -451 -2 -4 -6 -24 -10 -45 -10 -64 -45 -166 -81 -239 -104 -206 -238 -316
-456 -375 -154 -42 -238 -47 -716 -46 l-404 1 1 930 c0 512 1 943 1 959 l1 28
463 -5 c254 -2 471 -7 483 -10z"/>
<path d="M45182 1315 l1 -175 214 0 214 0 -1 175 -2 175 -213 0 -213 0 0 -175z"/>
<path d="M55847 1483 c-3 -5 -4 -83 -4 -175 l1 -168 211 0 212 0 1 175 1 175
-209 0 c-115 0 -211 -3 -213 -7z"/>
</g>
</svg>
